#!OML:ASF I:\Actors\actors\Patient Classification 2\Patient 1\Session 1\actor1.ASF
:FULLY-SPECIFIED
:DEGREES
511
root -0.734414 18.7874 4.36022 3.39646 0.888196 0.271095
lowerback 22.462 1.60137 1.78435
upperback 11.7869 2.40875 0.247974
thorax 0.416509 1.28356 -1.25798
lowerneck 12.6172 -3.68805 3.49622
upperneck 33.8453 -4.41576 -0.957966
head 8.63349 -1.63698 -1.05551
rclavicle -1.86858e-014 -4.37326e-015
rhumerus -1.68584 -29.9701 -8.22597
rradius 144.197
rwrist -86.5029
rhand 13.468 -42.7198
rfingers 7.12502
rthumb 38.4077 -68.4069
lclavicle -1.86858e-014 -4.37326e-015
lhumerus 8.57395 28.8409 10.9645
lradius 138.786
lwrist 102.848
lhand -2.00509 -19.6476
lfingers 7.12502
lthumb 23.6685 8.91528
rfemur 0 0 0
rtibia 0
rfoot 0 0
rtoes 0
lfemur -12.0398 -0.927302 -13.6364
ltibia 22.5497
lfoot -16.9978 12.9117
ltoes -56.1776
512
root -0.734053 18.787 4.36819 3.44026 0.892965 0.281464
lowerback 22.5043 1.58269 1.69972
upperback 11.7399 2.37123 0.300583
thorax 0.336216 1.25773 -1.14875
lowerneck 12.9415 -3.69801 3.38978
upperneck 33.8477 -4.40187 -1.02131
head 8.58555 -1.64744 -1.05215
rclavicle 1.59028e-015 -5.96354e-015
rhumerus -1.6744 -30.6831 -8.68916
rradius 144.883
rwrist -85.9966
rhand 14.535 -41.5684
rfingers 7.12502
rthumb 39.4137 -66.9686
lclavicle 1.59028e-015 -5.96354e-015
lhumerus 7.65758 29.2999 11.2072
lradius 140.221
lwrist 102.469
lhand -0.796598 -20.003
lfingers 7.12502
lthumb 24.8272 8.40518
rfemur 0 0 0
rtibia 0
rfoot 0 0
rtoes 0
lfemur -12.0699 -0.934789 -13.6521
ltibia 22.5728
lfoot -17.0599 12.8817
ltoes -56.1521
513
root -0.733187 18.7865 4.37654 3.50993 0.926171 0.253393
lowerback 22.5016 1.55578 1.64208
upperback 11.6673 2.32857 0.37477
thorax 0.250021 1.22975 -1.02972
lowerneck 12.7529 -3.61229 3.20808
upperneck 34.5944 -4.30524 -1.05608
head 8.90272 -1.61119 -1.04597
rclavicle -2.3059e-014 1.59028e-015
rhumerus -1.6948 -31.2813 -9.17619
rradius 145.645
rwrist -85.4166
rhand 15.6802 -40.4147
rfingers 7.12502
rthumb 40.4915 -65.4906
lclavicle -2.3059e-014 1.59028e-015
lhumerus 6.65526 29.6943 11.4256
lradius 141.674
lwrist 102.183
lhand 0.287717 -20.3216
lfingers 7.12502
lthumb 25.8659 7.93929
rfemur 0 0 0
rtibia 0
rfoot 0 0
rtoes 0
lfemur -12.1509 -0.924085 -13.6233
ltibia 22.6126
lfoot -17.0532 12.8426
ltoes -56.1444
514
root -0.732991 18.7869 4.38493 3.56126 1.00149 0.21525
lowerback 22.477 1.52223 1.59919
upperback 11.614 2.28054 0.466997
thorax 0.195743 1.19991 -0.897446
lowerneck 12.6814 -3.56196 3.05146
upperneck 35.1494 -4.2303 -1.14639
head 9.12953 -1.59037 -1.0586
rclavicle -1.59028e-014 -1.59028e-015
rhumerus -1.66581 -31.9072 -9.7237
rradius 146.339
rwrist -84.8609
rhand 17.1088 -39.3566
rfingers 7.12502
rthumb 41.8328 -64.0024
lclavicle -1.59028e-014 -1.59028e-015
lhumerus 5.74538 30.1107 11.7228
lradius 143.115
lwrist 101.734
lhand 1.08694 -20.5014
lfingers 7.12502
lthumb 26.6311 7.6456
rfemur 0 0 0
rtibia 0
rfoot 0 0
rtoes 0
lfemur -12.2207 -0.915918 -13.5776
ltibia 22.6585
lfoot -17.0523 12.7835
ltoes -56.125
515
root -0.732342 18.7879 4.3947 3.62354 1.07578 0.203897
lowerback 22.4086 1.48851 1.517
upperback 11.5668 2.22468 0.576104
thorax 0.167239 1.1643 -0.721846
lowerneck 12.633 -3.49201 2.78375
upperneck 35.6644 -4.13768 -1.20625
head 9.34317 -1.57392 -1.03951
rclavicle 1.47101e-014 -1.19271e-015
rhumerus -1.4914 -32.6369 -10.3211
rradius 146.919
rwrist -84.3043
rhand 18.6803 -38.3527
rfingers 7.12502
rthumb 43.3037 -62.4904
lclavicle 1.47101e-014 -1.19271e-015
lhumerus 4.94371 30.4945 12.0898
lradius 144.458
lwrist 101.242
lhand 2.19387 -20.7768
lfingers 7.12502
lthumb 27.69 7.2047
rfemur 0 0 0
rtibia 0
rfoot 0 0
rtoes 0
lfemur -12.288 -0.996566 -13.5629
ltibia 22.7062
lfoot -17.1417 12.771
ltoes -56.0642
516
root -0.731254 18.7873 4.4062 3.72113 1.13247 0.239315
lowerback 22.3152 1.45171 1.37827
upperback 11.4614 2.15404 0.662631
thorax 0.0858396 1.11898 -0.53589
lowerneck 12.6363 -3.40024 2.40238
upperneck 36.1873 -4.04539 -1.15851
head 9.56022 -1.56514 -0.961237
rclavicle -8.74653e-015 3.57812e-015
rhumerus -1.32958 -33.4135 -10.9245
rradius 147.499
rwrist -83.7889
rhand 20.256 -37.2258
rfingers 7.12502
rthumb 44.7735 -60.814
lclavicle -8.74653e-015 3.57812e-015
lhumerus 4.13419 30.8703 12.4578
lradius 145.707
lwrist 101.116
lhand 4.02216 -21.1502
lfingers 7.12502
lthumb 29.4369 6.5376
rfemur 0 0 0
rtibia 0
rfoot 0 0
rtoes 0
lfemur -12.3905 -1.01604 -13.6045
ltibia 22.7527
lfoot -17.1885 12.7233
ltoes -56.0405
517
root -0.72996 18.7873 4.41848 3.81101 1.18475 0.2558
lowerback 22.2318 1.4124 1.28396
upperback 11.324 2.0884 0.720967
thorax -0.0317203 1.07886 -0.407116
lowerneck 12.6054 -3.33211 2.06585
upperneck 36.7169 -3.98887 -1.09372
head 9.78707 -1.56752 -0.886011
rclavicle 3.97569e-016 -7.95139e-016
rhumerus -1.3111 -34.1202 -11.5865
rradius 148.081
rwrist -83.302
rhand 22.2914 -36.1171
rfingers 7.12502
rthumb 46.6634 -58.9302
lclavicle 3.97569e-016 -7.95139e-016
lhumerus 3.36463 31.2852 13.0462
lradius 146.909
lwrist 100.974
lhand 6.32021 -21.3369
lfingers 7.12502
lthumb 31.6284 5.94287
rfemur 0 0 0
rtibia 0
rfoot 0 0
rtoes 0
lfemur -12.4793 -0.945139 -13.6267
ltibia 22.7906
lfoot -17.1906 12.6088
ltoes -56.0848
518
root -0.728832 18.7895 4.43136 3.91544 1.23467 0.228943
lowerback 22.1181 1.39594 1.23636
upperback 11.1774 2.06078 0.786158
thorax -0.141826 1.0597 -0.304939
lowerneck 12.5017 -3.31708 1.83317
upperneck 37.2428 -3.97179 -1.13521
head 10.0208 -1.58342 -0.869457
rclavicle 2.62396e-014 -7.95139e-015
rhumerus -1.47845 -34.8689 -12.1905
rradius 148.623
rwrist -82.9036
rhand 24.7226 -35.2716
rfingers 7.12502
rthumb 48.9063 -57.0502
lclavicle 2.62396e-014 -7.95139e-015
lhumerus 2.63607 31.6672 13.8738
lradius 147.992
lwrist 100.43
lhand 8.72577 -21.3315
lfingers 7.12502
lthumb 33.9168 5.47068
rfemur 0 0 0
rtibia 0
rfoot 0 0
rtoes 0
lfemur -12.5726 -1.00338 -13.5982
ltibia 22.8243
lfoot -17.2542 12.6235
ltoes -56.1334
